<svg width="46" height="32" viewBox="0 0 46 32" fill="none" xmlns="http://www.w3.org/2000/svg">
<rect x="0.5" y="0.5" width="45" height="31" rx="3.5" fill="white"/>
<rect x="0.5" y="0.5" width="45" height="31" rx="3.5" stroke="#F9F7F6"/>
<path d="M25.6768 15.6076C25.6768 20.5456 21.7197 24.5486 16.8384 24.5486C11.9571 24.5486 8 20.5456 8 15.6076C8 10.6697 11.9571 6.66663 16.8384 6.66663C21.7197 6.66663 25.6768 10.6697 25.6768 15.6076Z" fill="#ED0006"/>
<path d="M37.1429 15.6076C37.1429 20.5456 33.1858 24.5486 28.3045 24.5486C23.4232 24.5486 19.4661 20.5456 19.4661 15.6076C19.4661 10.6697 23.4232 6.66663 28.3045 6.66663C33.1858 6.66663 37.1429 10.6697 37.1429 15.6076Z" fill="#0099DF"/>
<path fill-rule="evenodd" clip-rule="evenodd" d="M22.5714 8.80261C24.4718 10.4426 25.6768 12.8828 25.6768 15.6077C25.6768 18.3326 24.4718 20.7728 22.5714 22.4128C20.6711 20.7728 19.4661 18.3326 19.4661 15.6077C19.4661 12.8828 20.6711 10.4426 22.5714 8.80261Z" fill="#6C6BBD"/>
</svg>
