<svg width="46" height="32" viewBox="0 0 46 32" fill="none" xmlns="http://www.w3.org/2000/svg">
<rect x="0.5" y="0.5" width="45" height="31" rx="5.5" fill="white"/>
<rect x="0.5" y="0.5" width="45" height="31" rx="5.5" stroke="#F9F7F6"/>
<path fill-rule="evenodd" clip-rule="evenodd" d="M12.6965 11.1243C12.3097 11.5934 11.6909 11.9635 11.0721 11.9107C10.9948 11.2762 11.2977 10.6022 11.6522 10.1859C12.039 9.70344 12.7158 9.35981 13.2638 9.33337C13.3282 9.99421 13.0768 10.6418 12.6965 11.1243ZM13.2573 12.0362C12.7121 12.004 12.2147 12.2043 11.8129 12.366C11.5543 12.4701 11.3353 12.5583 11.1687 12.5583C10.9818 12.5583 10.7538 12.4654 10.4978 12.3612C10.1624 12.2245 9.7789 12.0684 9.37675 12.0759C8.45497 12.0891 7.59764 12.6244 7.12708 13.4768C6.16018 15.1818 6.87569 17.7062 7.81036 19.094C8.26803 19.7812 8.81594 20.5346 9.5379 20.5082C9.85552 20.4959 10.084 20.3965 10.3204 20.2936C10.5927 20.1752 10.8755 20.0522 11.317 20.0522C11.7433 20.0522 12.0137 20.172 12.2733 20.287C12.5201 20.3964 12.7571 20.5014 13.109 20.495C13.8567 20.4817 14.3273 19.8077 14.785 19.1204C15.2789 18.3828 15.4959 17.6629 15.5289 17.5536L15.5327 17.541C15.5319 17.5402 15.5258 17.5373 15.5151 17.5323L15.5151 17.5323C15.3499 17.4548 14.088 16.8625 14.0759 15.2743C14.0638 13.9413 15.0769 13.2658 15.2363 13.1595L15.2364 13.1595C15.246 13.153 15.2526 13.1487 15.2555 13.1464C14.6109 12.1684 13.6053 12.0626 13.2573 12.0362ZM18.4335 20.4223V10.1198H22.2044C24.1511 10.1198 25.5112 11.4943 25.5112 13.5033C25.5112 15.5122 24.1253 16.9 22.1528 16.9H19.9934V20.4223H18.4335ZM19.9933 11.4679H21.7917C23.1454 11.4679 23.9189 12.208 23.9189 13.5099C23.9189 14.8117 23.1454 15.5585 21.7853 15.5585H19.9933V11.4679ZM30.6617 19.1865C30.2491 19.9927 29.3403 20.5016 28.3605 20.5016C26.9101 20.5016 25.8981 19.616 25.8981 18.2811C25.8981 16.9595 26.8779 16.1995 28.6892 16.0872L30.6359 15.9682V15.3999C30.6359 14.5606 30.1009 14.1046 29.1469 14.1046C28.3605 14.1046 27.7868 14.521 27.6707 15.1554H26.2655C26.3106 13.8205 27.5354 12.849 29.192 12.849C30.9775 12.849 32.1378 13.8073 32.1378 15.2942V20.4223H30.6939V19.1865H30.6617ZM28.7793 19.279C27.9478 19.279 27.4192 18.8693 27.4192 18.2415C27.4192 17.5939 27.9285 17.2172 28.9018 17.1577L30.6358 17.0454V17.6269C30.6358 18.5917 29.8365 19.279 28.7793 19.279ZM36.9272 20.8254C36.3019 22.6295 35.5864 23.2242 34.0651 23.2242C33.9491 23.2242 33.5623 23.211 33.4721 23.1846V21.9488C33.5688 21.962 33.8073 21.9753 33.9298 21.9753C34.6195 21.9753 35.0063 21.6779 35.2448 20.9047L35.3866 20.4487L32.7437 12.9482H34.3745L36.2117 19.0345H36.2439L38.081 12.9482H39.6667L36.9272 20.8254Z" fill="black"/>
</svg>
