<svg width="46" height="32" viewBox="0 0 46 32" fill="none" xmlns="http://www.w3.org/2000/svg">
<rect x="0.5" y="0.5" width="45" height="31" rx="3.5" fill="white"/>
<rect x="0.5" y="0.5" width="45" height="31" rx="3.5" stroke="#F9F7F6"/>
<path fill-rule="evenodd" clip-rule="evenodd" d="M21.4103 20.704V16.7912H23.4298C24.2574 16.7912 24.9558 16.5139 25.5252 15.967L25.6619 15.8284C26.702 14.6961 26.6337 12.9322 25.5252 11.8847C24.971 11.3301 24.2118 11.0297 23.4298 11.0451H20.188V20.704H21.4103ZM21.4105 15.6049V12.2312H23.4607C23.9011 12.2312 24.3187 12.4007 24.63 12.7088C25.2906 13.3558 25.3058 14.4341 24.668 15.1043C24.3567 15.4355 23.9163 15.6203 23.4607 15.6049H21.4105ZM31.3636 14.6113C30.8398 14.1261 30.1261 13.8796 29.2226 13.8796C28.061 13.8796 27.188 14.3109 26.611 15.1659L27.689 15.8514C28.0838 15.2661 28.6229 14.9734 29.3062 14.9734C29.7389 14.9734 30.1565 15.1351 30.4829 15.4278C30.8018 15.7051 30.984 16.1056 30.984 16.5293V16.8143C30.5133 16.5524 29.9211 16.4137 29.1923 16.4137C28.342 16.4137 27.6587 16.614 27.15 17.0222C26.6413 17.4305 26.3832 17.9696 26.3832 18.6552C26.368 19.2791 26.6337 19.8721 27.1044 20.2727C27.5827 20.704 28.1901 20.9197 28.9038 20.9197C29.7465 20.9197 30.4146 20.5423 30.9233 19.7874H30.9764V20.704H32.1456V16.6294C32.1456 15.7744 31.8875 15.0966 31.3636 14.6113ZM28.0461 19.487C27.7955 19.3022 27.6436 19.0018 27.6436 18.6783C27.6436 18.3163 27.8107 18.0159 28.1372 17.7771C28.4713 17.5383 28.8889 17.4151 29.3825 17.4151C30.0659 17.4074 30.5974 17.5614 30.9771 17.8695C30.9771 18.3933 30.7721 18.8477 30.3696 19.2329C30.0051 19.6026 29.5116 19.8105 28.9952 19.8105C28.6535 19.8183 28.3194 19.7027 28.0461 19.487ZM34.7725 23.6078L38.8571 14.0953H37.5284L35.638 18.84H35.6152L33.6792 14.0953H32.3506L35.0306 20.2804L33.5122 23.6078H34.7725Z" fill="#3C4043"/>
<path d="M17.1905 15.9439C17.1905 15.5665 17.1601 15.1891 17.0994 14.8193H11.9443V16.9529H14.8977C14.7762 17.6384 14.3814 18.2546 13.8044 18.6398V20.0262H15.5658C16.5983 19.0634 17.1905 17.6385 17.1905 15.9439Z" fill="#4285F4"/>
<path d="M11.9445 21.3665C13.4173 21.3665 14.6625 20.8736 15.5659 20.0263L13.8045 18.6398C13.3111 18.9787 12.6809 19.1713 11.9445 19.1713C10.5172 19.1713 9.31001 18.1931 8.87726 16.8837H7.06274V18.3163C7.98898 20.188 9.87942 21.3665 11.9445 21.3665Z" fill="#34A853"/>
<path d="M8.87746 16.8836C8.64966 16.1981 8.64966 15.4509 8.87746 14.7577V13.3328H7.06266C6.28055 14.8964 6.28055 16.745 7.06266 18.3086L8.87746 16.8836Z" fill="#FBBC04"/>
<path d="M11.9445 12.4701C12.7265 12.4547 13.4781 12.7551 14.0399 13.302L15.6039 11.7152C14.6093 10.7755 13.3035 10.2595 11.9445 10.2749C9.87942 10.2749 7.98898 11.4611 7.06274 13.3328L8.87726 14.7654C9.31001 13.4483 10.5172 12.4701 11.9445 12.4701Z" fill="#EA4335"/>
</svg>
