<svg width="14" height="16" viewBox="0 0 14 16" fill="none" xmlns="http://www.w3.org/2000/svg">
<path d="M5.49837 6.3003V5.67743C5.28498 5.64892 5.06803 5.63111 4.84397 5.63111C2.17303 5.6276 0 7.80242 0 10.4792C0 12.1201 0.817998 13.5724 2.06989 14.4516C1.26256 13.5867 0.768206 12.4227 0.768206 11.1484C0.768206 8.51075 2.88077 6.36082 5.49837 6.3003Z" fill="white"/>
<path d="M5.61572 13.3624C6.80716 13.3624 7.78163 12.412 7.82433 11.2303L7.8279 0.669189H9.75551C9.71637 0.452057 9.69505 0.22781 9.69505 0H7.06322L7.05966 10.5611C7.01701 11.7428 6.04248 12.6932 4.85107 12.6932C4.4812 12.6932 4.13266 12.6007 3.82324 12.4369C4.22157 12.9958 4.87597 13.3624 5.61572 13.3624Z" fill="white"/>
<path d="M13.3584 4.2536V3.66631C12.6222 3.66631 11.9393 3.44917 11.3632 3.07184C11.8753 3.65918 12.5688 4.08634 13.3584 4.2536Z" fill="white"/>
<path d="M9.69501 10.4792V5.12211C10.7264 5.86251 11.9925 6.3003 13.3583 6.3003V4.2536C12.5687 4.08634 11.8752 3.65918 11.3631 3.07184C10.5379 2.53438 9.944 1.67297 9.75547 0.669189H7.82786L7.8243 11.2302C7.78165 12.412 6.80712 13.3624 5.61574 13.3624C4.87596 13.3624 4.22512 12.9958 3.81968 12.4405C3.11548 12.0667 2.6318 11.3299 2.6318 10.4792C2.6318 9.25829 3.62406 8.26517 4.84395 8.26517C5.07156 8.26517 5.29207 8.30431 5.49835 8.36839V6.30387C2.88076 6.36083 0.768188 8.51076 0.768188 11.1484C0.768188 12.4227 1.26254 13.5831 2.06987 14.4516C2.85586 15.0033 3.81612 15.3308 4.84751 15.3308C7.51846 15.3308 9.69501 13.1524 9.69501 10.4792Z" fill="white"/>
</svg>
