<svg width="24" height="24" viewBox="0 0 24 24" fill="none" xmlns="http://www.w3.org/2000/svg">
<mask id="mask0_2950_2439" style="mask-type:luminance" maskUnits="userSpaceOnUse" x="0" y="0" width="24" height="24">
<path d="M24 0H0V24H24V0Z" fill="white"/>
</mask>
<g mask="url(#mask0_2950_2439)">
<path d="M12 10.3C9.89995 10.3 8.19995 8.59995 8.19995 6.49995C8.19995 4.39995 9.89995 2.69995 12 2.69995C14.1 2.69995 15.8 4.39995 15.8 6.49995C15.8 8.59995 14.1 10.3 12 10.3ZM12 4.69995C11 4.69995 10.2 5.49995 10.2 6.49995C10.2 7.49995 11 8.29995 12 8.29995C13 8.29995 13.8 7.49995 13.8 6.49995C13.8 5.49995 13 4.69995 12 4.69995Z" fill="white"/>
<path d="M14.4 10.7V10.8L12 13.2L9.59995 10.8V10.7H4.19995V21.3H6.19995V19.3V12.7H8.79995L12 15.9L14.4 13.5L15.2 12.7H17.8V19.3V21.3H19.8V10.7H14.4Z" fill="white"/>
</g>
</svg>
