<svg width="16" height="12" viewBox="0 0 16 12" fill="none" xmlns="http://www.w3.org/2000/svg">
<path d="M15.6 2.10003C15.4 1.40003 14.9 0.900025 14.2 0.700025C13 0.400025 7.89999 0.400024 7.89999 0.400024C7.89999 0.400024 2.90001 0.400025 1.60001 0.700025C0.900006 0.900025 0.399997 1.40003 0.199997 2.10003C-3.05474e-06 3.40003 0 6.00002 0 6.00002C0 6.00002 3.03984e-06 8.60002 0.300003 9.90002C0.500003 10.6 0.999997 11.1 1.7 11.3C2.9 11.6 8 11.6 8 11.6C8 11.6 13 11.6 14.3 11.3C15 11.1 15.5 10.6 15.7 9.90002C16 8.60002 16 6.00002 16 6.00002C16 6.00002 16 3.40003 15.6 2.10003ZM6.39999 8.40002V3.60003L10.6 6.00002L6.39999 8.40002Z" fill="white"/>
</svg>
