<svg width="53" height="19" viewBox="0 0 53 19" fill="none" xmlns="http://www.w3.org/2000/svg">
<path d="M20.1567 9.58583V3.74658H22.3297C22.6157 3.74658 22.8772 3.79258 23.115 3.88408C23.3522 3.97583 23.5567 4.10608 23.728 4.27458C23.8992 4.44308 24.0322 4.64483 24.1267 4.87958C24.221 5.11408 24.2682 5.37458 24.2682 5.66058V5.66883C24.2682 5.95483 24.221 6.21508 24.1267 6.44983C24.0322 6.68433 23.8995 6.88683 23.728 7.05683C23.5565 7.22683 23.3522 7.35833 23.115 7.45133C22.8775 7.54458 22.6157 7.59108 22.3297 7.59108H21.0632V9.58608H20.1567V9.58583ZM22.1035 4.51158H21.0635V6.83033H22.1035C22.4972 6.83033 22.803 6.72908 23.02 6.52683C23.2372 6.32433 23.346 6.03983 23.346 5.67283V5.66483C23.346 5.30058 23.2372 5.01733 23.02 4.81508C22.8027 4.61258 22.4972 4.51158 22.1035 4.51158Z" fill="white"/>
<path d="M25.1055 9.5858V5.3288H25.9795V6.0573H26C26.07 5.80905 26.1902 5.6123 26.36 5.46655C26.53 5.3208 26.7362 5.24805 26.9792 5.24805C27.0412 5.24805 27.0987 5.25205 27.1512 5.2603C27.204 5.2683 27.2477 5.27505 27.2827 5.28055V6.0938C27.2475 6.0803 27.195 6.0688 27.1247 6.0593C27.0547 6.0498 26.9765 6.04505 26.8902 6.04505C26.6097 6.04505 26.3877 6.1328 26.2247 6.30805C26.0615 6.48355 25.98 6.7303 25.98 7.04855V9.5858H25.1055Z" fill="white"/>
<path d="M29.7248 9.6708C29.3093 9.6708 28.951 9.5813 28.6503 9.4018C28.3495 9.2223 28.1188 8.96805 27.9583 8.63905C27.7975 8.31005 27.7175 7.9213 27.7175 7.47355V7.46955C27.7175 7.13755 27.7633 6.83555 27.855 6.56305C27.9468 6.29055 28.079 6.0558 28.2515 5.85905C28.424 5.6623 28.6308 5.51105 28.8708 5.4058C29.111 5.30055 29.3808 5.24805 29.68 5.24805C30.0795 5.24805 30.4228 5.33705 30.71 5.51505C30.9973 5.69305 31.2183 5.94255 31.3735 6.2638C31.5285 6.5848 31.6063 6.95855 31.6063 7.38455V7.68005H28.5915C28.5995 8.08205 28.7068 8.39505 28.913 8.6188C29.1195 8.8428 29.3968 8.9548 29.7448 8.9548C29.9173 8.9548 30.0698 8.9278 30.202 8.8738C30.334 8.8198 30.444 8.7483 30.5315 8.6593C30.6193 8.5703 30.6808 8.47305 30.7158 8.3678L30.7278 8.33555H31.5573L31.5493 8.38005C31.514 8.55005 31.4483 8.71205 31.351 8.86555C31.2538 9.0193 31.1275 9.15705 30.9725 9.2783C30.8175 9.39955 30.6353 9.49555 30.426 9.56555C30.2178 9.6358 29.9835 9.6708 29.7248 9.6708ZM29.6843 5.9643C29.4953 5.9643 29.3243 6.00605 29.1703 6.08955C29.0165 6.1733 28.8903 6.2968 28.7918 6.4598C28.6933 6.6228 28.6305 6.8233 28.6035 7.06055H30.7403C30.705 6.69105 30.5918 6.4158 30.4005 6.23505C30.2088 6.05455 29.97 5.9643 29.6843 5.9643Z" fill="white"/>
<path d="M32.4895 9.5858V5.3288H33.3635V5.98855H33.3838C33.4753 5.76455 33.6245 5.5853 33.8308 5.4503C34.037 5.3153 34.2793 5.2478 34.557 5.2478C34.8513 5.2478 35.1015 5.3208 35.3078 5.4663C35.514 5.61205 35.659 5.8183 35.7428 6.08555H35.763C35.8735 5.82655 36.047 5.6223 36.283 5.47255C36.5188 5.3228 36.7883 5.24805 37.0903 5.24805C37.3708 5.24805 37.6158 5.3068 37.8248 5.42405C38.0338 5.54155 38.1955 5.7053 38.3103 5.9158C38.4248 6.1263 38.4823 6.3743 38.4823 6.66055V9.5863H37.604V6.87055C37.604 6.5928 37.5333 6.37755 37.3915 6.22505C37.25 6.0728 37.0498 5.9963 36.7908 5.9963C36.618 5.9963 36.4655 6.03605 36.3335 6.1158C36.2013 6.1953 36.0983 6.30455 36.024 6.44355C35.9498 6.58255 35.9128 6.7423 35.9128 6.92305V9.5858H35.0548V6.8058C35.0548 6.55755 34.9825 6.36055 34.8383 6.21505C34.694 6.06955 34.4978 5.99655 34.2498 5.99655C34.077 5.99655 33.9238 6.0383 33.7903 6.12205C33.6568 6.2058 33.5523 6.3198 33.4768 6.46405C33.401 6.6083 33.3635 6.7723 33.3635 6.95555V9.5858H32.4895Z" fill="white"/>
<path d="M40.0046 4.67328C39.9101 4.67328 39.8244 4.65028 39.7476 4.60453C39.6706 4.55878 39.6094 4.49803 39.5636 4.42253C39.5179 4.34703 39.4949 4.26328 39.4949 4.17153C39.4949 4.07728 39.5179 3.99228 39.5636 3.91653C39.6094 3.84078 39.6709 3.78028 39.7476 3.73428C39.8246 3.68853 39.9101 3.66553 40.0046 3.66553C40.1019 3.66553 40.1886 3.68853 40.2656 3.73428C40.3426 3.78028 40.4031 3.84078 40.4479 3.91653C40.4924 3.99203 40.5146 4.07703 40.5146 4.17153C40.5146 4.26328 40.4924 4.34703 40.4479 4.42253C40.4031 4.49803 40.3426 4.55878 40.2656 4.60453C40.1886 4.65028 40.1019 4.67328 40.0046 4.67328ZM39.5676 9.58578V5.32878H40.4416V9.58578H39.5676Z" fill="white"/>
<path d="M43 9.67074C42.69 9.67074 42.4248 9.60674 42.2048 9.47849C41.985 9.35024 41.8178 9.16824 41.703 8.93199C41.5883 8.69599 41.531 8.41474 41.531 8.08824V5.32874H42.405V7.91849C42.405 8.23949 42.4805 8.48649 42.6315 8.65899C42.7825 8.83149 43.0093 8.91799 43.3115 8.91799C43.5163 8.91799 43.6945 8.87224 43.8458 8.78049C43.9968 8.68874 44.114 8.55999 44.1978 8.39399C44.2813 8.22799 44.323 8.03449 44.323 7.81324V5.32874H45.2013V9.58574H44.323V8.94624H44.303C44.1923 9.15949 44.0283 9.33349 43.8113 9.46824C43.594 9.60324 43.3235 9.67074 43 9.67074Z" fill="white"/>
<path d="M46.2292 9.5858V5.3288H47.1032V5.98855H47.1235C47.215 5.76455 47.3642 5.5853 47.5705 5.4503C47.7767 5.3153 48.019 5.2478 48.2967 5.2478C48.591 5.2478 48.8412 5.3208 49.0475 5.4663C49.2537 5.61205 49.3987 5.8183 49.4825 6.08555H49.5027C49.6132 5.82655 49.7867 5.6223 50.0227 5.47255C50.2585 5.3228 50.528 5.24805 50.83 5.24805C51.1105 5.24805 51.3555 5.3068 51.5645 5.42405C51.7735 5.54155 51.9352 5.7053 52.05 5.9158C52.1645 6.1263 52.222 6.3743 52.222 6.66055V9.5863H51.3437V6.87055C51.3437 6.5928 51.273 6.37755 51.1312 6.22505C50.9897 6.0728 50.7895 5.9963 50.5305 5.9963C50.3577 5.9963 50.2052 6.03605 50.0732 6.1158C49.941 6.1953 49.838 6.30455 49.7637 6.44355C49.6895 6.58255 49.6525 6.7423 49.6525 6.92305V9.5858H48.7945V6.8058C48.7945 6.55755 48.7222 6.36055 48.578 6.21505C48.4337 6.06955 48.2375 5.99655 47.9895 5.99655C47.8167 5.99655 47.6635 6.0383 47.53 6.12205C47.3965 6.2058 47.292 6.3198 47.2165 6.46405C47.1407 6.6083 47.1032 6.7723 47.1032 6.95555V9.5858H46.2292Z" fill="white"/>
<path d="M20.1567 18.2195V12.3802H22.3297C22.6157 12.3802 22.8772 12.4262 23.115 12.5177C23.3522 12.6095 23.5567 12.7397 23.728 12.9082C23.8992 13.0767 24.0322 13.2785 24.1267 13.5132C24.221 13.7477 24.2682 14.0082 24.2682 14.2942V14.3025C24.2682 14.5885 24.221 14.8487 24.1267 15.0835C24.0322 15.318 23.8995 15.5205 23.728 15.6905C23.5565 15.8605 23.3522 15.992 23.115 16.085C22.8775 16.1782 22.6157 16.2247 22.3297 16.2247H21.0632V18.2197L20.1567 18.2195ZM22.1035 13.145H21.0635V15.4637H22.1035C22.4972 15.4637 22.803 15.3625 23.02 15.1602C23.2372 14.9577 23.346 14.6732 23.346 14.3062V14.2982C23.346 13.934 23.2372 13.6507 23.02 13.4485C22.8027 13.2462 22.4972 13.145 22.1035 13.145Z" fill="white"/>
<path d="M26.1485 18.2966C25.8653 18.2966 25.617 18.2426 25.4038 18.1348C25.1905 18.0271 25.0248 17.8758 24.9063 17.6816C24.7873 17.4873 24.728 17.2636 24.728 17.0098V17.0018C24.728 16.6321 24.8658 16.3381 25.1408 16.1196C25.4158 15.9011 25.8058 15.7771 26.3103 15.7473L27.4678 15.6786V15.3588C27.4678 15.1241 27.3948 14.9401 27.2493 14.8066C27.1035 14.6731 26.8943 14.6063 26.6218 14.6063C26.3683 14.6063 26.166 14.6603 26.0148 14.7681C25.8635 14.8758 25.7695 15.0148 25.7315 15.1848L25.7235 15.2213H24.898L24.902 15.1768C24.9235 14.9313 25.0058 14.7116 25.1488 14.5173C25.2918 14.3231 25.49 14.1686 25.7438 14.0538C25.9973 13.9393 26.298 13.8818 26.646 13.8818C26.994 13.8818 27.2948 13.9398 27.5483 14.0558C27.8018 14.1718 27.9983 14.3343 28.137 14.5433C28.276 14.7523 28.3453 15.0001 28.3453 15.2858V18.2196H27.4673V17.5478H27.451C27.327 17.7771 27.149 17.9593 26.9168 18.0941C26.6855 18.2291 26.429 18.2966 26.1485 18.2966ZM25.6105 16.9893C25.6105 17.1756 25.6813 17.3231 25.823 17.4323C25.9648 17.5416 26.1528 17.5963 26.3875 17.5963C26.5925 17.5963 26.7768 17.5538 26.94 17.4688C27.103 17.3838 27.232 17.2678 27.3265 17.1208C27.4208 16.9738 27.468 16.8086 27.468 16.6251V16.2933L26.428 16.3581C26.1663 16.3743 25.9645 16.4368 25.823 16.5461C25.6815 16.6556 25.6105 16.8006 25.6105 16.9811V16.9893Z" fill="white"/>
<path d="M29.3574 18.2196V13.9626H30.2314V14.6911H30.2517C30.3217 14.4428 30.4419 14.2461 30.6117 14.1003C30.7817 13.9546 30.9879 13.8818 31.2309 13.8818C31.2929 13.8818 31.3504 13.8858 31.4029 13.8941C31.4557 13.9021 31.4994 13.9088 31.5344 13.9143V14.7278C31.4992 14.7143 31.4467 14.7028 31.3764 14.6933C31.3064 14.6838 31.2282 14.6791 31.1419 14.6791C30.8614 14.6791 30.6394 14.7668 30.4764 14.9421C30.3132 15.1176 30.2317 15.3643 30.2317 15.6826V18.2198L29.3574 18.2196Z" fill="white"/>
<path d="M34.0672 18.3045C33.6462 18.3045 33.3332 18.2095 33.1282 18.0193C32.9232 17.829 32.821 17.5223 32.821 17.0985V14.6585H32.21V13.9625H32.821V12.8538H33.7152V13.9625H34.5122V14.6585H33.7152V17.046C33.7152 17.262 33.763 17.4098 33.8587 17.489C33.9545 17.5688 34.094 17.6085 34.2777 17.6085C34.3235 17.6085 34.366 17.6065 34.4052 17.6025C34.4442 17.5983 34.48 17.595 34.5125 17.5923V18.268C34.4612 18.276 34.3965 18.284 34.3182 18.2923C34.24 18.3005 34.1562 18.3045 34.0672 18.3045Z" fill="white"/>
<path d="M35.4399 18.2196V13.9626H36.3139V14.6061H36.3342C36.4447 14.3903 36.6094 14.2156 36.8279 14.0821C37.0464 13.9486 37.3162 13.8818 37.6372 13.8818C37.9499 13.8818 38.2157 13.9458 38.4342 14.0741C38.6527 14.2023 38.8199 14.3843 38.9359 14.6203C39.0519 14.8563 39.1099 15.1376 39.1099 15.4641V18.2198H38.2317V15.6298C38.2317 15.3088 38.1569 15.0621 38.0072 14.8893C37.8574 14.7166 37.6302 14.6303 37.3252 14.6303C37.1204 14.6303 36.9422 14.6768 36.7912 14.7701C36.6402 14.8631 36.5227 14.9926 36.4392 15.1586C36.3554 15.3246 36.3137 15.5181 36.3137 15.7393V18.2198L35.4399 18.2196Z" fill="white"/>
<path d="M41.9347 18.3046C41.5192 18.3046 41.161 18.2151 40.8602 18.0356C40.5595 17.8561 40.3287 17.6018 40.1682 17.2728C40.0075 16.9438 39.9275 16.5551 39.9275 16.1073V16.1033C39.9275 15.7713 39.9732 15.4693 40.065 15.1968C40.1567 14.9243 40.289 14.6896 40.4615 14.4928C40.634 14.2961 40.8407 14.1448 41.0807 14.0396C41.321 13.9343 41.5907 13.8818 41.89 13.8818C42.2895 13.8818 42.6327 13.9708 42.92 14.1488C43.2072 14.3268 43.4282 14.5763 43.5835 14.8976C43.7385 15.2186 43.8162 15.5923 43.8162 16.0183V16.3138H40.8015C40.8095 16.7158 40.9167 17.0288 41.123 17.2526C41.3295 17.4766 41.6067 17.5886 41.9547 17.5886C42.1272 17.5886 42.2797 17.5616 42.412 17.5076C42.544 17.4536 42.654 17.3821 42.7415 17.2931C42.8292 17.2041 42.8907 17.1068 42.9257 17.0016L42.9377 16.9693H43.7672L43.7592 17.0138C43.724 17.1838 43.6582 17.3458 43.561 17.4993C43.4637 17.6531 43.3375 17.7908 43.1825 17.9121C43.0275 18.0333 42.8452 18.1293 42.636 18.1993C42.4275 18.2696 42.1935 18.3046 41.9347 18.3046ZM41.8942 14.5978C41.7052 14.5978 41.5342 14.6396 41.3802 14.7231C41.2265 14.8068 41.1002 14.9303 41.0017 15.0933C40.9032 15.2563 40.8405 15.4568 40.8135 15.6941H42.9502C42.915 15.3246 42.8017 15.0493 42.6105 14.8686C42.4187 14.6883 42.18 14.5978 41.8942 14.5978Z" fill="white"/>
<path d="M44.6992 18.2196V13.9626H45.5732V14.6911H45.5935C45.6635 14.4428 45.7837 14.2461 45.9535 14.1003C46.1235 13.9546 46.3297 13.8818 46.5727 13.8818C46.6347 13.8818 46.6922 13.8858 46.7447 13.8941C46.7975 13.9021 46.8412 13.9088 46.8762 13.9143V14.7278C46.841 14.7143 46.7885 14.7028 46.7182 14.6933C46.6482 14.6838 46.57 14.6791 46.4837 14.6791C46.2032 14.6791 45.9812 14.7668 45.8182 14.9421C45.655 15.1176 45.5735 15.3643 45.5735 15.6826V18.2198L44.6992 18.2196Z" fill="white"/>
<path d="M11.0784 5.18145C9.60791 5.0727 8.36041 6.0027 7.66441 6.0027C6.95816 6.0027 5.86941 5.2047 4.71516 5.2267C3.19916 5.24895 1.80216 6.1087 1.02066 7.46595C-0.553842 10.1987 0.618658 14.2485 2.15241 16.466C2.90266 17.5495 3.79741 18.7707 4.97241 18.7262C6.10366 18.6817 6.53166 17.9945 7.89891 17.9945C9.26541 17.9945 9.65091 18.7262 10.8472 18.7042C12.0647 18.6817 12.8362 17.5982 13.5809 16.5085C14.4427 15.2507 14.7967 14.033 14.8177 13.9685C14.7907 13.9582 12.4444 13.058 12.4209 10.3547C12.3997 8.09445 14.2657 7.0082 14.3507 6.95595C13.2909 5.3962 11.6549 5.2242 11.0784 5.18145Z" fill="white"/>
<path d="M10.1711 3.71747C10.7956 2.96272 11.2158 1.91147 11.1001 0.865967C10.2013 0.901717 9.11407 1.46472 8.46932 2.21897C7.89207 2.88722 7.38483 3.95747 7.52258 4.98147C8.52458 5.05922 9.54707 4.47272 10.1711 3.71747Z" fill="white"/>
</svg>
