<svg width="251" height="48" viewBox="0 0 251 48" fill="none" xmlns="http://www.w3.org/2000/svg">
<path d="M126.499 8V12.7608H131.696V8H126.499ZM126.499 14.8023V31.8067H131.696V14.8023H126.499Z" fill="white"/>
<path d="M95.0156 14.2566C89.6147 14.2566 85.9829 17.7252 85.9829 23.3015C85.9829 28.8778 89.6174 32.3465 95.0156 32.3465C100.414 32.3465 104.048 28.8778 104.048 23.3015C104.048 17.7252 100.414 14.2566 95.0156 14.2566ZM95.0156 27.9604C93.0456 27.9604 91.2462 26.7702 91.2462 23.3015C91.2462 19.8329 93.0456 18.6096 95.0156 18.6096C96.9855 18.6096 98.7849 19.8687 98.7849 23.3015C98.7849 26.7344 96.9855 27.9604 95.0156 27.9604Z" fill="white"/>
<path d="M117.296 14.2926C114.239 14.2926 112.168 16.4361 111.59 18.4748H111.386V8H106.189V31.8067H111.386L111.317 28.203H111.521C111.997 30.1426 113.661 32.3522 117.057 32.3522C121.473 32.3522 124.562 28.6797 124.562 23.4423C124.562 18.2048 121.709 14.2954 117.293 14.2954L117.296 14.2926ZM115.224 27.9964C113.152 27.9964 111.251 26.7043 111.251 23.3706C111.251 20.037 113.152 18.6429 115.224 18.6429C117.296 18.6429 119.233 19.9681 119.233 23.3706C119.233 26.7732 117.365 27.9964 115.224 27.9964Z" fill="white"/>
<path d="M140.6 27.5198C139.513 27.5198 139.139 26.9081 139.139 25.8199V8H134.043V26.7043C134.043 30.1399 135.81 31.8067 139.241 31.8067H141.585V27.5225H140.6V27.5198Z" fill="white"/>
<path d="M160.602 22.6238C160.602 16.9786 156.8 14.2566 151.839 14.2566C146.609 14.2566 142.806 17.5544 142.806 23.3015C142.806 29.5942 147.255 32.3465 151.671 32.3465C156.087 32.3465 159.719 30.4069 160.398 26.2247H155.372C154.896 27.7896 153.402 28.3323 151.941 28.3323C149.971 28.3323 147.83 27.3791 147.764 24.4559H160.432C160.533 24.0151 160.602 23.4365 160.602 22.6183V22.6238ZM155.372 21.4666H147.866C147.968 19.359 149.564 17.998 151.704 17.998C153.845 17.998 155.441 19.2901 155.372 21.4666Z" fill="white"/>
<path d="M171.495 27.9634C169.525 27.9634 167.725 26.7732 167.725 23.3046C167.725 19.8359 169.525 18.6127 171.495 18.6127C173.09 18.6127 174.483 19.2601 174.857 21.6047H180.222C179.883 16.4692 176.282 14.2596 171.495 14.2596C166.094 14.2596 162.462 17.7283 162.462 23.3046C162.462 28.8809 166.096 32.3495 171.495 32.3495C176.282 32.3495 179.883 30.14 180.222 25.0045H174.857C174.483 27.3518 173.09 27.9634 171.495 27.9634Z" fill="white"/>
<path d="M199.6 27.6576C198.615 27.6576 198.309 27.3187 198.309 26.3985V20.7203C198.309 16.8109 195.728 14.2596 190.465 14.2596C184.896 14.2596 181.941 16.9128 181.941 20.4503H187.342C187.342 18.9543 188.564 18.2738 190.297 18.2738C192.267 18.2738 193.115 19.4971 193.115 21.1997V21.7425L188.088 22.1171C184.453 22.3899 182.145 24.0209 182.145 27.2857C182.145 30.2446 183.98 32.2173 187.51 32.2173C191.04 32.2173 192.773 30.2446 193.249 28.4428H193.453V28.5448C193.453 30.7213 194.914 31.8095 197.731 31.8095H200.381V27.6604H199.6V27.6576ZM189.785 28.6109C187.917 28.6109 187.477 27.7265 187.477 26.8091C187.477 25.8916 188.019 25.1422 190.193 24.9384L193.181 24.6656C193.181 27.3518 191.618 28.6109 189.785 28.6109Z" fill="white"/>
<path d="M212.339 14.4965C208.908 14.4965 208.162 17.0119 207.551 19.9047H207.381L207.515 14.8023H202.318V31.8067H207.515V25.6849C207.515 20.1416 209.554 19.8689 212.339 19.8689H213.833V14.6315C213.392 14.5626 212.916 14.4965 212.339 14.4965Z" fill="white"/>
<path d="M232.77 22.6238C232.77 16.9786 228.968 14.2566 224.007 14.2566C218.777 14.2566 214.974 17.5544 214.974 23.3015C214.974 29.5942 219.423 32.3465 223.839 32.3465C228.255 32.3465 231.887 30.4069 232.566 26.2247H227.54C227.064 27.7896 225.57 28.3323 224.109 28.3323C222.139 28.3323 219.998 27.3791 219.932 24.4559H232.599C232.701 24.0151 232.77 23.4365 232.77 22.6183V22.6238ZM227.54 21.4666H220.034C220.136 19.359 221.732 17.998 223.872 17.998C226.013 17.998 227.608 19.2901 227.54 21.4666Z" fill="white"/>
<path d="M84.3487 31.8037H79.9438L79.4651 25.186L79.2587 22.3318V22.2629H79.0551L79.0331 22.3483L78.78 23.3649L76.6807 31.801H71.9539L69.8546 23.3622L69.6015 22.3483L69.5795 22.2629H69.3759V22.329L69.1695 25.1833L68.6908 31.801H64.2859L64.9242 23.8057L65.6863 14.2511H71.8383L71.9511 14.7029L74.1907 23.7065L74.2127 23.792H74.4163L74.4384 23.7065L76.6807 14.6864L76.788 14.2511H82.94L83.7021 23.8057L84.3404 31.801L84.3487 31.8037Z" fill="white"/>
<path d="M52.7277 31.7877C52.4966 32.0908 52.26 32.3883 52.0124 32.6776C51.9518 32.7492 51.8913 32.8209 51.828 32.8925C51.773 32.9531 51.7207 33.0165 51.6657 33.0771C51.4538 33.314 51.2365 33.5482 51.0136 33.7741C50.9641 33.8265 50.9146 33.876 50.8623 33.9256C50.8128 33.9752 50.7605 34.0276 50.711 34.0772C50.4826 34.3003 50.2515 34.518 50.0149 34.7301C49.9544 34.7852 49.8911 34.8403 49.8305 34.8927C49.759 34.9533 49.6875 35.0167 49.6159 35.0773C49.3271 35.3225 49.0299 35.5622 48.7273 35.7936C48.4934 35.9727 48.254 36.1462 48.0119 36.3143C47.8606 36.419 47.7093 36.5237 47.5552 36.6229C47.4094 36.7193 47.2608 36.8157 47.1095 36.9094C47.0187 36.9673 46.9251 37.0251 46.8316 37.0802C46.661 37.1849 46.4877 37.2841 46.3116 37.3833C46.2098 37.4411 46.1107 37.4962 46.0089 37.5513C45.6925 37.7221 45.3734 37.8875 45.0487 38.0417C45.0294 38.05 45.0129 38.0583 44.9937 38.0665C44.669 38.2208 44.3416 38.3668 44.0087 38.5046C43.8711 38.5597 43.7336 38.6148 43.596 38.6699C43.2136 38.8187 42.8229 38.9564 42.4294 39.0832C42.3221 39.1162 42.2148 39.152 42.1075 39.1823C42.0745 39.1934 42.0415 39.2016 42.0085 39.2127C41.9479 39.2319 41.8847 39.2485 41.8241 39.2678C41.3949 39.3917 40.9602 39.5019 40.52 39.5984C40.3494 39.6369 40.1788 39.67 40.0055 39.7058C39.7579 39.7526 39.5075 39.7967 39.2544 39.8353C39.1086 39.8573 38.9627 39.8794 38.8169 39.8987C38.5473 39.9345 38.2749 39.9648 38.0025 39.9923C37.6806 40.0226 37.3532 40.0474 37.0258 40.0612C37.0093 40.0612 36.9955 40.0612 36.979 40.0612C36.6544 40.075 36.3297 40.0833 36.0023 40.0833C35.6749 40.0833 35.3475 40.075 35.0256 40.0612C35.0091 40.0612 34.9953 40.0612 34.9788 40.0612C34.6514 40.0447 34.3267 40.0226 34.0021 39.9923C33.7297 39.9675 33.4573 39.9345 33.1877 39.8987C33.0418 39.8794 32.896 39.8573 32.7502 39.8353C32.4998 39.7967 32.2495 39.7526 31.9991 39.7058C31.845 39.6755 31.6937 39.6452 31.5424 39.6121C31.5231 39.6066 31.5038 39.6039 31.4846 39.5984C31.0444 39.5019 30.6096 39.3917 30.1804 39.2678C30.1199 39.2512 30.0566 39.2319 29.9961 39.2127C29.9631 39.2016 29.9301 39.1934 29.897 39.1823C29.7897 39.1493 29.6824 39.1162 29.5751 39.0832C29.1817 38.9564 28.791 38.8187 28.4086 38.6699C28.271 38.6148 28.1334 38.5597 27.9959 38.5046C27.663 38.3668 27.3328 38.2208 27.0109 38.0665C26.9916 38.0583 26.9751 38.05 26.9559 38.0417C26.6312 37.8875 26.3093 37.7221 25.9956 37.5513C25.8938 37.4962 25.792 37.4411 25.693 37.3833C25.5169 37.2841 25.3436 37.1822 25.173 37.0802C24.9281 36.9342 24.6888 36.7799 24.4494 36.6229C24.2953 36.5209 24.144 36.419 23.9927 36.3143C23.7505 36.1462 23.5112 35.9699 23.2773 35.7936C22.9747 35.5622 22.6803 35.3252 22.3886 35.0773C22.3171 35.0167 22.2456 34.9533 22.174 34.8927C22.1135 34.8376 22.0502 34.7852 21.9897 34.7301C21.7531 34.518 21.5192 34.3003 21.2936 34.0772C21.2413 34.0276 21.1918 33.978 21.1423 33.9256C21.0927 33.876 21.0405 33.8237 20.9909 33.7741C20.7681 33.5454 20.5507 33.314 20.3389 33.0771C20.2838 33.0165 20.2288 32.9531 20.1765 32.8925C20.1133 32.8209 20.0527 32.7492 19.9922 32.6776C19.7473 32.3883 19.508 32.0908 19.2769 31.7877L21.9924 29.0684L23.3323 27.7267C23.5414 28.0325 23.7615 28.3301 23.9927 28.6193C24.0587 28.702 24.1247 28.7847 24.1935 28.8673C24.2485 28.9362 24.3063 29.0023 24.3641 29.0684C24.6145 29.3605 24.8758 29.6415 25.1482 29.9142C25.4206 30.187 25.7012 30.4487 25.9929 30.6994C26.0589 30.7573 26.1277 30.8124 26.1937 30.8703C26.2763 30.9391 26.3588 31.0053 26.4414 31.0714C26.7303 31.3028 27.0274 31.5232 27.3328 31.7326C27.5502 31.8814 27.7703 32.0246 27.9931 32.1624C28.183 32.2781 28.3756 32.3911 28.5709 32.4985C28.9451 32.7079 29.3303 32.898 29.7237 33.0771C29.787 33.1046 29.8503 33.1322 29.9136 33.1597C29.9411 33.1707 29.9686 33.1845 29.9961 33.1955C30.0291 33.2093 30.0649 33.2231 30.0979 33.2396C30.1309 33.2534 30.1667 33.2672 30.1997 33.281C30.2355 33.2947 30.2712 33.3085 30.307 33.3223C30.318 33.3278 30.3318 33.3305 30.3428 33.3361C30.3868 33.3526 30.4308 33.3719 30.4748 33.3884C30.4913 33.3939 30.5078 33.4022 30.5244 33.4077C30.5601 33.4215 30.5959 33.4352 30.6317 33.449C30.6674 33.4628 30.7032 33.4766 30.739 33.4903C30.7665 33.5014 30.794 33.5096 30.8215 33.5206C30.8545 33.5344 30.8903 33.5454 30.9233 33.5565C30.9701 33.573 31.0196 33.5895 31.0664 33.6061C31.1654 33.6391 31.2672 33.6722 31.3663 33.7052C31.4048 33.7163 31.4406 33.73 31.4791 33.7411C31.4983 33.7466 31.5176 33.7521 31.5369 33.7576C31.5754 33.7686 31.6111 33.7796 31.6497 33.7906C31.6827 33.8017 31.7157 33.8099 31.7487 33.8182C31.757 33.8182 31.768 33.8237 31.7762 33.8265C31.8092 33.8347 31.8423 33.8457 31.878 33.854C31.9165 33.865 31.9551 33.876 31.9936 33.8843C32.0596 33.9008 32.1229 33.9201 32.1889 33.9367C32.2384 33.9504 32.288 33.9615 32.3347 33.9725C32.3815 33.9835 32.4338 33.9973 32.4833 34.0083C32.5163 34.0166 32.5493 34.0248 32.5824 34.0303C32.6484 34.0469 32.7144 34.0606 32.7805 34.0744C32.8382 34.0882 32.8988 34.0992 32.9565 34.1102C32.9868 34.1157 33.0171 34.1213 33.0473 34.1268C33.3582 34.1874 33.6746 34.2397 33.9938 34.281C34.2304 34.3114 34.4698 34.3361 34.7092 34.3582C34.91 34.3747 35.1136 34.3885 35.3172 34.3968C35.5428 34.4078 35.7684 34.4105 35.994 34.4105C36.2224 34.4105 36.448 34.405 36.6709 34.3968C36.8745 34.3885 37.0753 34.3747 37.2789 34.3582C37.5183 34.3389 37.7576 34.3141 37.9943 34.281C38.3134 34.2397 38.6271 34.1874 38.9407 34.1268C38.971 34.1213 39.0013 34.1157 39.0315 34.1075C39.0618 34.102 39.0893 34.0965 39.1196 34.0882C39.1498 34.0827 39.1801 34.0772 39.2104 34.0689C39.2764 34.0551 39.3424 34.0414 39.4085 34.0248C39.557 33.9918 39.7028 33.9559 39.8487 33.9174C39.8982 33.9036 39.9477 33.8926 39.9945 33.8788C40.0385 33.8678 40.0798 33.854 40.1238 33.843C40.2916 33.7962 40.4567 33.7466 40.6218 33.6942C40.8969 33.6061 41.1693 33.5124 41.4389 33.4104C41.4692 33.3994 41.4967 33.3884 41.527 33.3774C41.615 33.3443 41.7031 33.3085 41.7911 33.2727C41.8599 33.2451 41.9287 33.2148 41.9947 33.1873C42.0222 33.1763 42.0497 33.1625 42.0773 33.1515C42.1405 33.1239 42.2038 33.0964 42.2671 33.0688C42.6605 32.8925 43.043 32.6996 43.4172 32.493C43.6125 32.3856 43.8051 32.2726 43.9922 32.1569C44.2151 32.0191 44.4352 31.8759 44.6525 31.7271C44.9579 31.5177 45.2551 31.2973 45.544 31.0659C45.6265 30.9997 45.709 30.9336 45.7916 30.8647C45.8604 30.8096 45.9264 30.7518 45.9924 30.6939C46.2841 30.4432 46.5675 30.1815 46.8371 29.9087C47.1067 29.636 47.3708 29.355 47.6212 29.0629C47.679 28.9968 47.734 28.9307 47.7918 28.8618C47.8606 28.7791 47.9266 28.6965 47.9927 28.6138C48.2238 28.3246 48.4439 28.027 48.653 27.7212L48.9941 28.0628L50.9944 30.0658L51.0962 30.1677L51.9959 31.0686L52.7112 31.7849L52.7277 31.7877Z" fill="white"/>
<path d="M54.0124 19.04L50.0119 23.0459L43.0097 16.0342L36.0076 23.0459L29.0026 16.0342L22.0005 23.0459L18 19.04L29.0026 8.01965L36.0076 15.0313L43.0097 8.01965L54.0124 19.04Z" fill="white"/>
</svg>
